<svg width="24" height="24" viewBox="0 0 24 24" fill="none" xmlns="http://www.w3.org/2000/svg">
<path d="M12 6.54545H13.8333M12 10.1818H13.8333M4.66667 13.8182H13.8333M4.66667 17.4545H13.8333M17.5 6.54545H21.625C22.384 6.54545 23 7.15636 23 7.90909V19.2727C23 19.996 22.7103 20.6897 22.1945 21.2012C21.6788 21.7127 20.9793 22 20.25 22M17.5 6.54545V19.2727C17.5 19.996 17.7897 20.6897 18.3055 21.2012C18.8212 21.7127 19.5207 22 20.25 22M17.5 6.54545V3.36364C17.5 2.61091 16.884 2 16.125 2H2.375C1.616 2 1 2.61091 1 3.36364V19.2727C1 19.996 1.28973 20.6897 1.80546 21.2012C2.32118 21.7127 3.02065 22 3.75 22H20.25M4.66667 6.54545H8.33333V10.1818H4.66667V6.54545Z" stroke="#C4C4C4" stroke-width="1.5" stroke-linecap="round" stroke-linejoin="round"/>
</svg>
