<svg width="17" height="19" viewBox="0 0 17 19" fill="none" xmlns="http://www.w3.org/2000/svg">
<path d="M9.4375 1.125V4.875C9.4375 5.12364 9.53627 5.3621 9.71209 5.53791C9.8879 5.71373 10.1264 5.8125 10.375 5.8125H14.125" stroke="#C4C4C4" stroke-width="1.1708" stroke-linecap="round" stroke-linejoin="round"/>
<path d="M5.6875 18H2.875C2.37772 18 1.90081 17.8025 1.54917 17.4508C1.19754 17.0992 1 16.6223 1 16.125V3C1 2.50272 1.19754 2.02581 1.54917 1.67417C1.90081 1.32254 2.37772 1.125 2.875 1.125H9.4375L14.125 5.8125V9.09375M4.75 6.75H5.6875M4.75 10.5H7.09375M4.75 14.25H5.6875" stroke="#C4C4C4" stroke-width="1.1708" stroke-linecap="round" stroke-linejoin="round"/>
<path d="M9.4375 18V14.25C9.4375 13.7527 9.63504 13.2758 9.98668 12.9242C10.3383 12.5725 10.8152 12.375 11.3125 12.375C11.8098 12.375 12.2867 12.5725 12.6383 12.9242C12.99 13.2758 13.1875 13.7527 13.1875 14.25V18M9.4375 16.125H13.1875M16 12.375V18" stroke="#C4C4C4" stroke-width="1.1708" stroke-linecap="round" stroke-linejoin="round"/>
</svg>
