<svg width="19" height="21" viewBox="0 0 19 21" fill="none" xmlns="http://www.w3.org/2000/svg">
  <path
    d="M10.5625 1V5.25C10.5625 5.53179 10.6744 5.80204 10.8737 6.0013C11.073 6.20056 11.3432 6.3125 11.625 6.3125H15.875"
    stroke="#C4C4C4" stroke-width="1.32691" stroke-linecap="round" stroke-linejoin="round" />
  <path
    d="M6.3125 20.125H3.125C2.56142 20.125 2.02091 19.9011 1.6224 19.5026C1.22388 19.1041 1 18.5636 1 18V3.125C1 2.56141 1.22388 2.02091 1.6224 1.6224C2.02091 1.22388 2.56142 1 3.125 1H10.5625L15.875 6.3125V10.0312M5.25 7.375H6.3125M5.25 11.625H7.90625M5.25 15.875H6.3125"
    stroke="#C4C4C4" stroke-width="1.32691" stroke-linecap="round" stroke-linejoin="round" />
  <path
    d="M10.5625 20.125V15.875C10.5625 15.3114 10.7864 14.7709 11.1849 14.3724C11.5834 13.9739 12.1239 13.75 12.6875 13.75C13.2511 13.75 13.7916 13.9739 14.1901 14.3724C14.5886 14.7709 14.8125 15.3114 14.8125 15.875V20.125M10.5625 18H14.8125M18 13.75V20.125"
    stroke="#C4C4C4" stroke-width="1.32691" stroke-linecap="round" stroke-linejoin="round" />
</svg>