<svg width="20" height="20" viewBox="0 0 20 20" fill="none" xmlns="http://www.w3.org/2000/svg">
  <path
    d="M18.7146 4.99479C18.0729 5.28646 17.3813 5.47812 16.6646 5.56979C17.3979 5.12813 17.9646 4.42812 18.2313 3.58646C17.5396 4.00312 16.7729 4.29479 15.9646 4.46146C15.3062 3.74479 14.3813 3.32812 13.3313 3.32812C11.3729 3.32812 9.77292 4.92813 9.77292 6.90312C9.77292 7.18646 9.80625 7.46146 9.86458 7.71979C6.89792 7.56979 4.25625 6.14479 2.49792 3.98646C2.18958 4.51146 2.01458 5.12813 2.01458 5.77812C2.01458 7.01979 2.63958 8.11979 3.60625 8.74479C3.01458 8.74479 2.46458 8.57812 1.98125 8.32812V8.35312C1.98125 10.0865 3.21458 11.5365 4.84792 11.8615C4.32352 12.005 3.773 12.0249 3.23958 11.9198C3.46592 12.6302 3.9092 13.2518 4.5071 13.6972C5.105 14.1427 5.82746 14.3895 6.57292 14.4031C5.30928 15.4035 3.74291 15.9442 2.13125 15.9365C1.84792 15.9365 1.56458 15.9198 1.28125 15.8865C2.86458 16.9031 4.74792 17.4948 6.76458 17.4948C13.3313 17.4948 16.9396 12.0448 16.9396 7.31979C16.9396 7.16146 16.9396 7.01146 16.9312 6.85312C17.6312 6.35312 18.2312 5.71979 18.7146 4.99479Z"
    fill="#D5D5D5" />
</svg>