<svg width="3201" height="665" viewBox="0 0 3201 665" fill="none" xmlns="http://www.w3.org/2000/svg">
  <path
    d="M574.326 507L706.128 149.396H751.595L882.887 507H837.42L804.725 415.045H652.488L619.282 507H574.326ZM665.259 380.306H791.953L728.606 203.548L665.259 380.306ZM933.494 507V139.179H976.406V507H933.494ZM1046.74 619.39V253.612H1085.57L1089.65 295.503C1097.83 283.242 1109.41 272.174 1124.39 262.297C1139.72 252.42 1159.13 247.482 1182.63 247.482C1207.83 247.482 1229.8 253.272 1248.53 264.851C1267.26 276.431 1281.74 292.268 1291.96 312.361C1302.51 332.455 1307.79 355.274 1307.79 380.817C1307.79 406.36 1302.51 429.179 1291.96 449.273C1281.74 469.026 1267.09 484.692 1248.02 496.272C1229.29 507.511 1207.32 513.13 1182.12 513.13C1161.35 513.13 1142.78 508.873 1126.44 500.359C1110.43 491.844 1098.17 479.924 1089.65 464.598V619.39H1046.74ZM1177.52 475.837C1194.55 475.837 1209.54 471.921 1222.48 464.088C1235.42 455.914 1245.64 444.675 1253.13 430.371C1260.62 416.067 1264.37 399.378 1264.37 380.306C1264.37 361.234 1260.62 344.546 1253.13 330.242C1245.64 315.938 1235.42 304.869 1222.48 297.036C1209.54 288.862 1194.55 284.775 1177.52 284.775C1160.49 284.775 1145.51 288.862 1132.57 297.036C1119.62 304.869 1109.41 315.938 1101.91 330.242C1094.42 344.546 1090.68 361.234 1090.68 380.306C1090.68 399.378 1094.42 416.067 1101.91 430.371C1109.41 444.675 1119.62 455.914 1132.57 464.088C1145.51 471.921 1160.49 475.837 1177.52 475.837ZM1367.53 507V139.179H1410.44V297.036C1418.95 281.369 1431.04 269.279 1446.71 260.764C1462.38 251.909 1479.41 247.482 1497.8 247.482C1527.09 247.482 1550.59 256.677 1568.3 275.069C1586.01 293.119 1594.86 321.046 1594.86 358.85V507H1552.46V363.448C1552.46 310.659 1531.17 284.264 1488.6 284.264C1466.46 284.264 1447.9 292.268 1432.92 308.275C1417.93 323.941 1410.44 346.419 1410.44 375.708V507H1367.53ZM1744.17 513.13C1723.05 513.13 1705.51 509.554 1691.55 502.402C1677.59 495.25 1667.2 485.714 1660.39 473.794C1653.58 461.874 1650.17 448.932 1650.17 434.968C1650.17 409.085 1660.05 389.161 1679.8 375.198C1699.55 361.234 1726.46 354.252 1760.52 354.252H1828.97V351.187C1828.97 329.05 1823.18 312.361 1811.6 301.122C1800.02 289.543 1784.53 283.753 1765.11 283.753C1748.43 283.753 1733.95 288.01 1721.69 296.525C1709.77 304.699 1702.28 316.789 1699.21 332.796H1655.28C1656.98 314.405 1663.11 298.909 1673.67 286.307C1684.57 273.706 1698.02 264.17 1714.03 257.699C1730.03 250.888 1747.06 247.482 1765.11 247.482C1800.53 247.482 1827.1 257.018 1844.81 276.09C1862.86 294.822 1871.88 319.854 1871.88 351.187V507H1833.57L1831.02 461.533C1823.86 475.837 1813.31 488.098 1799.34 498.315C1785.72 508.192 1767.33 513.13 1744.17 513.13ZM1750.81 476.859C1767.16 476.859 1781.12 472.602 1792.7 464.088C1804.62 455.573 1813.65 444.505 1819.78 430.882C1825.91 417.259 1828.97 402.954 1828.97 387.969V387.458H1764.09C1738.89 387.458 1721.01 391.886 1710.45 400.741C1700.23 409.255 1695.13 419.983 1695.13 432.925C1695.13 446.207 1699.89 456.935 1709.43 465.109C1719.31 472.943 1733.1 476.859 1750.81 476.859ZM2074.01 507V149.396H2291.64V184.646H2116.93V310.318H2265.59V345.057H2116.93V507H2074.01ZM2447.3 513.13C2423.12 513.13 2401.66 507.681 2382.93 496.783C2364.2 485.544 2349.38 470.048 2338.48 450.294C2327.93 430.541 2322.65 407.212 2322.65 380.306C2322.65 353.741 2327.93 330.582 2338.48 310.829C2349.04 290.735 2363.69 275.239 2382.42 264.34C2401.49 253.101 2423.46 247.482 2448.32 247.482C2472.84 247.482 2493.96 253.101 2511.67 264.34C2529.72 275.239 2543.51 289.713 2553.05 307.764C2562.58 325.814 2567.35 345.227 2567.35 366.002C2567.35 369.748 2567.18 373.495 2566.84 377.241C2566.84 380.987 2566.84 385.244 2566.84 390.013H2365.05C2366.07 409.425 2370.5 425.603 2378.33 438.544C2386.51 451.146 2396.55 460.682 2408.47 467.153C2420.73 473.624 2433.68 476.859 2447.3 476.859C2465.01 476.859 2479.82 472.772 2491.74 464.598C2503.66 456.425 2512.35 445.356 2517.8 431.392H2560.2C2553.39 454.892 2540.28 474.475 2520.86 490.142C2501.79 505.467 2477.27 513.13 2447.3 513.13ZM2447.3 283.753C2426.86 283.753 2408.64 290.054 2392.64 302.655C2376.97 314.916 2367.94 332.966 2365.56 356.806H2524.95C2523.93 333.988 2516.09 316.108 2501.45 303.166C2486.81 290.224 2468.75 283.753 2447.3 283.753ZM2738.15 513.13C2713.97 513.13 2692.51 507.681 2673.78 496.783C2655.05 485.544 2640.24 470.048 2629.34 450.294C2618.78 430.541 2613.5 407.212 2613.5 380.306C2613.5 353.741 2618.78 330.582 2629.34 310.829C2639.89 290.735 2654.54 275.239 2673.27 264.34C2692.34 253.101 2714.31 247.482 2739.17 247.482C2763.69 247.482 2784.81 253.101 2802.52 264.34C2820.57 275.239 2834.36 289.713 2843.9 307.764C2853.44 325.814 2858.2 345.227 2858.2 366.002C2858.2 369.748 2858.03 373.495 2857.69 377.241C2857.69 380.987 2857.69 385.244 2857.69 390.013H2655.9C2656.92 409.425 2661.35 425.603 2669.18 438.544C2677.36 451.146 2687.41 460.682 2699.33 467.153C2711.59 473.624 2724.53 476.859 2738.15 476.859C2755.86 476.859 2770.68 472.772 2782.6 464.598C2794.52 456.425 2803.2 445.356 2808.65 431.392H2851.05C2844.24 454.892 2831.13 474.475 2811.71 490.142C2792.64 505.467 2768.12 513.13 2738.15 513.13ZM2738.15 283.753C2717.72 283.753 2699.5 290.054 2683.49 302.655C2667.82 314.916 2658.8 332.966 2656.41 356.806H2815.8C2814.78 333.988 2806.95 316.108 2792.3 303.166C2777.66 290.224 2759.61 283.753 2738.15 283.753ZM3030.02 513.13C3004.82 513.13 2982.68 507.341 2963.61 495.761C2944.88 484.181 2930.24 468.345 2919.68 448.251C2909.46 428.157 2904.35 405.338 2904.35 379.795C2904.35 354.252 2909.63 331.604 2920.19 311.851C2930.75 291.757 2945.39 276.09 2964.12 264.851C2982.86 253.272 3004.99 247.482 3030.54 247.482C3051.31 247.482 3069.7 251.739 3085.71 260.254C3101.72 268.768 3114.15 280.688 3123 296.014V139.179H3165.91V507H3127.09L3123 465.109C3114.83 477.37 3103.08 488.439 3087.75 498.315C3072.43 508.192 3053.18 513.13 3030.02 513.13ZM3034.62 475.837C3051.65 475.837 3066.64 471.921 3079.58 464.088C3092.86 455.914 3103.08 444.675 3110.23 430.371C3117.72 416.067 3121.47 399.378 3121.47 380.306C3121.47 361.234 3117.72 344.546 3110.23 330.242C3103.08 315.938 3092.86 304.869 3079.58 297.036C3066.64 288.862 3051.65 284.775 3034.62 284.775C3017.93 284.775 3002.95 288.862 2989.67 297.036C2976.72 304.869 2966.51 315.938 2959.01 330.242C2951.86 344.546 2948.29 361.234 2948.29 380.306C2948.29 399.378 2951.86 416.067 2959.01 430.371C2966.51 444.675 2976.72 455.914 2989.67 464.088C3002.95 471.921 3017.93 475.837 3034.62 475.837Z"
    fill="white" />
  <mask id="mask0_623_140" style="mask-type:alpha" maskUnits="userSpaceOnUse" x="0" y="123" width="418" height="419">
    <circle cx="208.979" cy="332.643" r="208.651" fill="#221133" />
  </mask>
  <g mask="url(#mask0_623_140)">
    <mask id="mask1_623_140" style="mask-type:alpha" maskUnits="userSpaceOnUse" x="1" y="124" width="418" height="418">
      <circle cx="209.651" cy="332.651" r="208.651" fill="#221133" />
    </mask>
    <g mask="url(#mask1_623_140)">
      <circle cx="209.323" cy="332.659" r="208.651" fill="white" />
      <circle cx="209.718" cy="332.702" r="129.827" fill="black" />
      <circle cx="209.631" cy="332.631" r="75.7327" fill="white" />
      <rect x="314.891" y="256.422" width="275.111" height="53.9951" transform="rotate(55 314.891 256.422)"
        fill="black" />
      <rect x="428.457" y="512.758" width="275.111" height="53.9951" transform="rotate(-125 428.457 512.758)"
        fill="black" />
      <rect x="428.457" y="512.758" width="275.111" height="53.9951" transform="rotate(-125 428.457 512.758)"
        fill="black" />
      <g filter="url(#filter0_f_623_140)">
        <rect x="340.598" y="307" width="28.1823" height="44.5348" transform="rotate(45.1915 340.598 307)"
          fill="white" />
      </g>
      <rect x="477.344" y="184.031" width="275.111" height="53.9951" transform="rotate(125.892 477.344 184.031)"
        fill="black" />
      <path d="M302.887 333.589L270.663 333.589L270.663 287.797L302.887 333.589Z" fill="white" />
      <path d="M302.895 333.006L270.671 333.006L272.172 375.508L302.895 333.006Z" fill="white" />
    </g>
  </g>
  <defs>
    <filter id="filter0_f_623_140" x="229" y="227" width="211.457" height="211.383" filterUnits="userSpaceOnUse"
      color-interpolation-filters="sRGB">
      <feFlood flood-opacity="0" result="BackgroundImageFix" />
      <feBlend mode="normal" in="SourceGraphic" in2="BackgroundImageFix" result="shape" />
      <feGaussianBlur stdDeviation="40" result="effect1_foregroundBlur_623_140" />
    </filter>
  </defs>
</svg>