<svg width="418" height="418" viewBox="0 0 418 418" fill="none" xmlns="http://www.w3.org/2000/svg">
  <mask id="mask0_632_7" style="mask-type:alpha" maskUnits="userSpaceOnUse" x="0" y="0" width="418" height="418">
    <circle cx="208.651" cy="208.651" r="208.651" fill="#221133" />
  </mask>
  <g mask="url(#mask0_632_7)">
    <circle cx="208.323" cy="208.659" r="208.651" fill="white" />
    <circle cx="208.718" cy="208.702" r="129.827" fill="black" />
    <circle cx="208.631" cy="208.631" r="75.7327" fill="white" />
    <rect x="313.891" y="132.422" width="275.111" height="53.9951" transform="rotate(55 313.891 132.422)"
      fill="black" />
    <rect x="427.457" y="388.758" width="275.111" height="53.9951" transform="rotate(-125 427.457 388.758)"
      fill="black" />
    <rect x="427.457" y="388.758" width="275.111" height="53.9951" transform="rotate(-125 427.457 388.758)"
      fill="black" />
    <g filter="url(#filter0_f_632_7)">
      <rect x="339.598" y="183" width="28.1823" height="44.5348" transform="rotate(45.1915 339.598 183)" fill="white" />
    </g>
    <rect x="476.344" y="60.0312" width="275.111" height="53.9951" transform="rotate(125.892 476.344 60.0312)"
      fill="black" />
    <path d="M301.887 209.589L269.663 209.589L269.663 163.797L301.887 209.589Z" fill="white" />
    <path d="M301.895 209.006L269.671 209.006L271.172 251.508L301.895 209.006Z" fill="white" />
  </g>
  <defs>
    <filter id="filter0_f_632_7" x="228" y="103" width="211.457" height="211.383" filterUnits="userSpaceOnUse"
      color-interpolation-filters="sRGB">
      <feFlood flood-opacity="0" result="BackgroundImageFix" />
      <feBlend mode="normal" in="SourceGraphic" in2="BackgroundImageFix" result="shape" />
      <feGaussianBlur stdDeviation="40" result="effect1_foregroundBlur_632_7" />
    </filter>
  </defs>
</svg>