<svg width="1902" height="665" viewBox="0 0 1902 665" fill="none" xmlns="http://www.w3.org/2000/svg">
<path d="M574.326 507L706.128 149.396H751.595L882.887 507H837.42L804.725 415.045H652.488L619.282 507H574.326ZM665.259 380.306H791.953L728.606 203.548L665.259 380.306ZM933.494 507V139.179H976.406V507H933.494ZM1046.74 619.39V253.612H1085.57L1089.65 295.503C1097.83 283.242 1109.41 272.174 1124.39 262.297C1139.72 252.42 1159.13 247.482 1182.63 247.482C1207.83 247.482 1229.8 253.272 1248.53 264.851C1267.26 276.431 1281.74 292.268 1291.96 312.361C1302.51 332.455 1307.79 355.274 1307.79 380.817C1307.79 406.36 1302.51 429.179 1291.96 449.273C1281.74 469.026 1267.09 484.692 1248.02 496.272C1229.29 507.511 1207.32 513.13 1182.12 513.13C1161.35 513.13 1142.78 508.873 1126.44 500.359C1110.43 491.844 1098.17 479.924 1089.65 464.598V619.39H1046.74ZM1177.52 475.837C1194.55 475.837 1209.54 471.921 1222.48 464.088C1235.42 455.914 1245.64 444.675 1253.13 430.371C1260.62 416.067 1264.37 399.378 1264.37 380.306C1264.37 361.234 1260.62 344.546 1253.13 330.242C1245.64 315.938 1235.42 304.869 1222.48 297.036C1209.54 288.862 1194.55 284.775 1177.52 284.775C1160.49 284.775 1145.51 288.862 1132.57 297.036C1119.62 304.869 1109.41 315.938 1101.91 330.242C1094.42 344.546 1090.68 361.234 1090.68 380.306C1090.68 399.378 1094.42 416.067 1101.91 430.371C1109.41 444.675 1119.62 455.914 1132.57 464.088C1145.51 471.921 1160.49 475.837 1177.52 475.837ZM1367.53 507V139.179H1410.44V297.036C1418.95 281.369 1431.04 269.279 1446.71 260.764C1462.38 251.909 1479.41 247.482 1497.8 247.482C1527.09 247.482 1550.59 256.677 1568.3 275.069C1586.01 293.119 1594.86 321.046 1594.86 358.85V507H1552.46V363.448C1552.46 310.659 1531.17 284.264 1488.6 284.264C1466.46 284.264 1447.9 292.268 1432.92 308.275C1417.93 323.941 1410.44 346.419 1410.44 375.708V507H1367.53ZM1744.17 513.13C1723.05 513.13 1705.51 509.554 1691.55 502.402C1677.59 495.25 1667.2 485.714 1660.39 473.794C1653.58 461.874 1650.17 448.932 1650.17 434.968C1650.17 409.085 1660.05 389.161 1679.8 375.198C1699.55 361.234 1726.46 354.252 1760.52 354.252H1828.97V351.187C1828.97 329.05 1823.18 312.361 1811.6 301.122C1800.02 289.543 1784.53 283.753 1765.11 283.753C1748.43 283.753 1733.95 288.01 1721.69 296.525C1709.77 304.699 1702.28 316.789 1699.21 332.796H1655.28C1656.98 314.405 1663.11 298.909 1673.67 286.307C1684.57 273.706 1698.02 264.17 1714.03 257.699C1730.03 250.888 1747.06 247.482 1765.11 247.482C1800.53 247.482 1827.1 257.018 1844.81 276.09C1862.86 294.822 1871.88 319.854 1871.88 351.187V507H1833.57L1831.02 461.533C1823.86 475.837 1813.31 488.098 1799.34 498.315C1785.72 508.192 1767.33 513.13 1744.17 513.13ZM1750.81 476.859C1767.16 476.859 1781.12 472.602 1792.7 464.088C1804.62 455.573 1813.65 444.505 1819.78 430.882C1825.91 417.259 1828.97 402.954 1828.97 387.969V387.458H1764.09C1738.89 387.458 1721.01 391.886 1710.45 400.741C1700.23 409.255 1695.13 419.983 1695.13 432.925C1695.13 446.207 1699.89 456.935 1709.43 465.109C1719.31 472.943 1733.1 476.859 1750.81 476.859Z" fill="white"/>
<mask id="mask0_623_140" style="mask-type:alpha" maskUnits="userSpaceOnUse" x="0" y="123" width="418" height="419">
<circle cx="208.979" cy="332.643" r="208.651" fill="#221133"/>
</mask>
<g mask="url(#mask0_623_140)">
<circle cx="208.651" cy="332.651" r="208.651" fill="white"/>
<circle cx="209.046" cy="332.695" r="129.827" fill="#221133"/>
<circle cx="208.959" cy="332.623" r="75.7327" fill="white"/>
<rect x="314.219" y="256.414" width="275.111" height="53.9951" transform="rotate(55 314.219 256.414)" fill="#221133"/>
<rect x="427.785" y="512.75" width="275.111" height="53.9951" transform="rotate(-125 427.785 512.75)" fill="#221133"/>
<rect x="427.785" y="512.75" width="275.111" height="53.9951" transform="rotate(-125 427.785 512.75)" fill="#221133"/>
<g filter="url(#filter0_f_623_140)">
<rect x="334.82" y="289.086" width="68.3314" height="44.5348" transform="rotate(54.045 334.82 289.086)" fill="white"/>
</g>
<rect x="476.672" y="184.023" width="275.111" height="53.9951" transform="rotate(125.892 476.672 184.023)" fill="#221133"/>
<path d="M302.215 333.581L269.991 333.581L269.991 287.789L302.215 333.581Z" fill="white"/>
<path d="M302.223 332.998L269.999 332.998L271.5 375.5L302.223 332.998Z" fill="white"/>
</g>
<defs>
<filter id="filter0_f_623_140" x="252.403" y="242.719" width="168.906" height="174.195" filterUnits="userSpaceOnUse" color-interpolation-filters="sRGB">
<feFlood flood-opacity="0" result="BackgroundImageFix"/>
<feBlend mode="normal" in="SourceGraphic" in2="BackgroundImageFix" result="shape"/>
<feGaussianBlur stdDeviation="23.1835" result="effect1_foregroundBlur_623_140"/>
</filter>
</defs>
</svg>
