<svg width="13" height="13" viewBox="0 0 13 13" fill="none" xmlns="http://www.w3.org/2000/svg">
<path d="M11.3807 3.45865C10.9906 3.63598 10.5701 3.75251 10.1343 3.80825C10.5802 3.53971 10.9247 3.11411 11.0869 2.60238C10.6663 2.85571 10.2002 3.03305 9.70872 3.13438C9.30845 2.69865 8.74605 2.44531 8.10765 2.44531C6.91698 2.44531 5.94418 3.41811 5.94418 4.61891C5.94418 4.79118 5.96445 4.95838 5.99992 5.11545C4.19618 5.02425 2.59005 4.15785 1.52098 2.84558C1.33352 3.16478 1.22712 3.53971 1.22712 3.93491C1.22712 4.68985 1.60712 5.35865 2.19485 5.73865C1.83512 5.73865 1.50072 5.63731 1.20685 5.48531V5.50051C1.20685 6.55438 1.95672 7.43598 2.94978 7.63358C2.63095 7.72083 2.29623 7.73297 1.97192 7.66905C2.10953 8.10097 2.37904 8.47891 2.74257 8.74973C3.10609 9.02056 3.54534 9.17065 3.99858 9.17891C3.23029 9.78713 2.27794 10.1159 1.29805 10.1112C1.12578 10.1112 0.953517 10.101 0.78125 10.0808C1.74392 10.6989 2.88898 11.0586 4.11512 11.0586C8.10765 11.0586 10.3015 7.74505 10.3015 4.87225C10.3015 4.77598 10.3015 4.68478 10.2965 4.58851C10.7221 4.28451 11.0869 3.89945 11.3807 3.45865Z" fill="#9CA3AF"/>
</svg>
