<svg width="287" height="374" viewBox="0 0 287 374" fill="none" xmlns="http://www.w3.org/2000/svg">
<rect x="1" y="126" width="285" height="40" fill="#221133" stroke="#8FA7FB" stroke-width="2"/>
<path d="M146 224L153.246 211.45L138.754 211.45L146 224ZM144.745 186L144.745 212.705L147.255 212.705L147.255 186L144.745 186Z" fill="#8FA7FB"/>
<path d="M146 106L153.246 93.4501L138.754 93.4501L146 106ZM144.745 68L144.745 94.7051L147.255 94.7051L147.255 68L144.745 68Z" fill="#8FA7FB"/>
<rect width="50" height="50" rx="8" fill="#1D9BF0"/>
<path d="M38.948 17.0026C37.9214 17.4693 36.8147 17.7759 35.668 17.9226C36.8414 17.2159 37.748 16.0959 38.1747 14.7493C37.068 15.4159 35.8414 15.8826 34.548 16.1493C33.4947 15.0026 32.0147 14.3359 30.3347 14.3359C27.2014 14.3359 24.6414 16.8959 24.6414 20.0559C24.6414 20.5093 24.6947 20.9493 24.788 21.3626C20.0414 21.1226 15.8147 18.8426 13.0014 15.3893C12.508 16.2293 12.228 17.2159 12.228 18.2559C12.228 20.2426 13.228 22.0026 14.7747 23.0026C13.828 23.0026 12.948 22.7359 12.1747 22.3359V22.3759C12.1747 25.1493 14.148 27.4693 16.7614 27.9893C15.9223 28.2189 15.0415 28.2508 14.188 28.0826C14.5502 29.2192 15.2594 30.2138 16.216 30.9265C17.1727 31.6392 18.3286 32.0342 19.5214 32.0559C17.4995 33.6565 14.9933 34.5217 12.4147 34.5093C11.9614 34.5093 11.508 34.4826 11.0547 34.4293C13.588 36.0559 16.6014 37.0026 19.828 37.0026C30.3347 37.0026 36.108 28.2826 36.108 20.7226C36.108 20.4693 36.108 20.2293 36.0947 19.9759C37.2147 19.1759 38.1747 18.1626 38.948 17.0026Z" fill="black"/>
<rect x="80" width="50" height="50" rx="8" fill="#8FA7FB"/>
<path d="M110.811 27.6641C110.917 26.7841 110.997 25.9041 110.997 24.9974C110.997 24.0907 110.917 23.2107 110.811 22.3307H115.317C115.531 23.1841 115.664 24.0774 115.664 24.9974C115.664 25.9174 115.531 26.8107 115.317 27.6641M108.451 35.0774C109.251 33.5974 109.864 31.9974 110.291 30.3307H114.224C112.932 32.5551 110.883 34.2401 108.451 35.0774ZM108.117 27.6641H101.877C101.744 26.7841 101.664 25.9041 101.664 24.9974C101.664 24.0907 101.744 23.1974 101.877 22.3307H108.117C108.237 23.1974 108.331 24.0907 108.331 24.9974C108.331 25.9041 108.237 26.7841 108.117 27.6641ZM104.997 35.6107C103.891 34.0107 102.997 32.2374 102.451 30.3307H107.544C106.997 32.2374 106.104 34.0107 104.997 35.6107ZM99.6641 19.6641H95.7707C97.0492 17.4337 99.0971 15.746 101.531 14.9174C100.731 16.3974 100.131 17.9974 99.6641 19.6641ZM95.7707 30.3307H99.6641C100.131 31.9974 100.731 33.5974 101.531 35.0774C99.1022 34.2396 97.0572 32.5544 95.7707 30.3307ZM94.6774 27.6641C94.4641 26.8107 94.3307 25.9174 94.3307 24.9974C94.3307 24.0774 94.4641 23.1841 94.6774 22.3307H99.1841C99.0774 23.2107 98.9974 24.0907 98.9974 24.9974C98.9974 25.9041 99.0774 26.7841 99.1841 27.6641M104.997 14.3707C106.104 15.9707 106.997 17.7574 107.544 19.6641H102.451C102.997 17.7574 103.891 15.9707 104.997 14.3707ZM114.224 19.6641H110.291C109.873 18.0127 109.255 16.4186 108.451 14.9174C110.904 15.7574 112.944 17.4507 114.224 19.6641ZM104.997 11.6641C97.6241 11.6641 91.6641 17.6641 91.6641 24.9974C91.6641 28.5336 93.0688 31.925 95.5693 34.4255C96.8074 35.6636 98.2773 36.6457 99.8949 37.3158C101.513 37.9859 103.246 38.3307 104.997 38.3307C108.534 38.3307 111.925 36.926 114.425 34.4255C116.926 31.925 118.331 28.5336 118.331 24.9974C118.331 23.2464 117.986 21.5126 117.316 19.8949C116.646 18.2773 115.664 16.8074 114.425 15.5693C113.187 14.3312 111.718 13.3491 110.1 12.679C108.482 12.0089 106.748 11.6641 104.997 11.6641Z" fill="black"/>
<rect x="159" width="50" height="50" rx="8" fill="#DF8FFB"/>
<g clip-path="url(#clip0_623_79)">
<path d="M192.4 13.8H198V34.8C198 35.9139 197.558 36.9822 196.77 37.7698C195.982 38.5575 194.914 39 193.8 39H174.2C173.086 39 172.018 38.5575 171.23 37.7698C170.442 36.9822 170 35.9139 170 34.8V11H192.4V13.8ZM192.4 16.6V34.8C192.4 35.1713 192.547 35.5274 192.81 35.79C193.073 36.0525 193.429 36.2 193.8 36.2C194.171 36.2 194.527 36.0525 194.79 35.79C195.053 35.5274 195.2 35.1713 195.2 34.8V16.6H192.4ZM172.8 13.8V34.8C172.8 35.1713 172.947 35.5274 173.21 35.79C173.473 36.0525 173.829 36.2 174.2 36.2H189.838C189.679 35.7504 189.599 35.2768 189.6 34.8V13.8H172.8ZM175.6 25H186.8V27.8H175.6V25ZM175.6 30.6H186.8V33.4H175.6V30.6ZM175.6 16.6H186.8V22.2H175.6V16.6Z" fill="black"/>
</g>
<rect x="237" width="50" height="50" rx="8" fill="#FB8FAF"/>
<path d="M264.828 12.25V17.9167C264.828 18.2924 264.977 18.6527 265.243 18.9184C265.509 19.1841 265.869 19.3333 266.245 19.3333H271.911" stroke="black" stroke-width="2.83333" stroke-linecap="round" stroke-linejoin="round"/>
<path d="M259.161 37.75H254.911C254.16 37.75 253.439 37.4515 252.908 36.9201C252.377 36.3888 252.078 35.6681 252.078 34.9167V15.0833C252.078 14.3319 252.377 13.6112 252.908 13.0799C253.439 12.5485 254.16 12.25 254.911 12.25H264.828L271.911 19.3333V24.2917M257.745 20.75H259.161M257.745 26.4167H261.286M257.745 32.0833H259.161" stroke="black" stroke-width="2.83333" stroke-linecap="round" stroke-linejoin="round"/>
<path d="M264.828 37.75V32.0833C264.828 31.3319 265.127 30.6112 265.658 30.0799C266.189 29.5485 266.91 29.25 267.661 29.25C268.413 29.25 269.134 29.5485 269.665 30.0799C270.196 30.6112 270.495 31.3319 270.495 32.0833V37.75M264.828 34.9167H270.495M274.745 29.25V37.75" stroke="black" stroke-width="2.83333" stroke-linecap="round" stroke-linejoin="round"/>
<rect y="241" width="287" height="58" rx="8" fill="#655278"/>
<circle cx="29" cy="270" r="14" fill="#4F3E60"/>
<rect x="57" y="256" width="215" height="9" rx="4.5" fill="url(#paint0_linear_623_79)"/>
<rect x="57" y="276" width="150" height="9" rx="4.5" fill="url(#paint1_linear_623_79)"/>
<rect x="219" y="276" width="53" height="9" rx="4.5" fill="url(#paint2_linear_623_79)"/>
<rect y="316" width="287" height="58" rx="8" fill="#655278"/>
<circle cx="29" cy="345" r="14" fill="#4F3E60"/>
<rect x="57" y="331" width="215" height="9" rx="4.5" fill="url(#paint3_linear_623_79)"/>
<rect x="57" y="351" width="150" height="9" rx="4.5" fill="url(#paint4_linear_623_79)"/>
<rect x="219" y="351" width="53" height="9" rx="4.5" fill="url(#paint5_linear_623_79)"/>
<path d="M122.609 152L127.112 139.784H128.665L133.15 152H131.597L130.48 148.859H125.279L124.145 152H122.609ZM125.716 147.672H130.044L127.88 141.634L125.716 147.672ZM134.879 152V139.435H136.345V152H134.879ZM138.747 155.839V143.344H140.073L140.213 144.775C140.492 144.356 140.888 143.978 141.4 143.641C141.923 143.304 142.586 143.135 143.389 143.135C144.25 143.135 145.001 143.333 145.64 143.728C146.28 144.124 146.775 144.665 147.124 145.351C147.484 146.038 147.665 146.817 147.665 147.69C147.665 148.562 147.484 149.342 147.124 150.028C146.775 150.703 146.274 151.238 145.623 151.634C144.983 152.017 144.233 152.209 143.372 152.209C142.662 152.209 142.028 152.064 141.47 151.773C140.923 151.482 140.504 151.075 140.213 150.552V155.839H138.747ZM143.215 150.935C143.796 150.935 144.308 150.802 144.75 150.534C145.192 150.255 145.541 149.871 145.797 149.382C146.053 148.894 146.181 148.324 146.181 147.672C146.181 147.021 146.053 146.451 145.797 145.962C145.541 145.473 145.192 145.095 144.75 144.828C144.308 144.548 143.796 144.409 143.215 144.409C142.633 144.409 142.121 144.548 141.679 144.828C141.237 145.095 140.888 145.473 140.632 145.962C140.376 146.451 140.248 147.021 140.248 147.672C140.248 148.324 140.376 148.894 140.632 149.382C140.888 149.871 141.237 150.255 141.679 150.534C142.121 150.802 142.633 150.935 143.215 150.935ZM149.705 152V139.435H151.171V144.828C151.462 144.292 151.875 143.879 152.41 143.589C152.945 143.286 153.527 143.135 154.155 143.135C155.156 143.135 155.959 143.449 156.564 144.077C157.168 144.694 157.471 145.648 157.471 146.939V152H156.023V147.096C156.023 145.293 155.295 144.391 153.841 144.391C153.085 144.391 152.451 144.665 151.939 145.212C151.427 145.747 151.171 146.515 151.171 147.515V152H149.705ZM162.571 152.209C161.85 152.209 161.251 152.087 160.774 151.843C160.297 151.599 159.942 151.273 159.709 150.866C159.477 150.458 159.36 150.016 159.36 149.539C159.36 148.655 159.698 147.975 160.372 147.498C161.047 147.021 161.966 146.782 163.13 146.782H165.468V146.677C165.468 145.921 165.27 145.351 164.875 144.967C164.479 144.572 163.95 144.374 163.287 144.374C162.717 144.374 162.222 144.519 161.803 144.81C161.396 145.089 161.14 145.502 161.036 146.049H159.535C159.593 145.421 159.802 144.892 160.163 144.461C160.535 144.031 160.995 143.705 161.542 143.484C162.088 143.251 162.67 143.135 163.287 143.135C164.497 143.135 165.404 143.461 166.009 144.112C166.626 144.752 166.934 145.607 166.934 146.677V152H165.625L165.538 150.447C165.294 150.935 164.933 151.354 164.456 151.703C163.991 152.041 163.362 152.209 162.571 152.209ZM162.798 150.97C163.357 150.97 163.834 150.825 164.229 150.534C164.636 150.243 164.945 149.865 165.154 149.4C165.363 148.934 165.468 148.446 165.468 147.934V147.916H163.252C162.391 147.916 161.78 148.068 161.42 148.37C161.071 148.661 160.896 149.028 160.896 149.47C160.896 149.923 161.059 150.29 161.385 150.569C161.722 150.837 162.193 150.97 162.798 150.97ZM173.071 152L177.573 139.784H179.127L183.611 152H182.058L180.941 148.859H175.741L174.607 152H173.071ZM176.177 147.672H180.505L178.341 141.634L176.177 147.672ZM185.427 152V139.784H186.893V152H185.427Z" fill="white"/>
<mask id="mask0_623_79" style="mask-type:alpha" maskUnits="userSpaceOnUse" x="103" y="139" width="15" height="15">
<circle cx="110.128" cy="146.362" r="7.12753" fill="#221133"/>
</mask>
<g mask="url(#mask0_623_79)">
<circle cx="110.12" cy="146.362" r="7.12753" fill="white"/>
<circle cx="110.138" cy="146.365" r="4.43491" fill="#221133"/>
<circle cx="110.126" cy="146.36" r="2.58703" fill="white"/>
<rect x="113.727" y="143.758" width="9.39778" height="1.84447" transform="rotate(55 113.727 143.758)" fill="#221133"/>
<rect x="117.602" y="152.516" width="9.39778" height="1.84447" transform="rotate(-125 117.602 152.516)" fill="#221133"/>
<rect x="117.602" y="152.516" width="9.39778" height="1.84447" transform="rotate(-125 117.602 152.516)" fill="#221133"/>
<g filter="url(#filter0_f_623_79)">
<rect x="114.43" y="144.875" width="2.3342" height="1.52131" transform="rotate(54.045 114.43 144.875)" fill="white"/>
</g>
<rect x="119.273" y="141.289" width="9.39778" height="1.84447" transform="rotate(125.892 119.273 141.289)" fill="#221133"/>
<path d="M113.312 146.392L112.212 146.392L112.212 144.828L113.312 146.392Z" fill="white"/>
<path d="M113.313 146.376L112.212 146.376L112.263 147.828L113.313 146.376Z" fill="white"/>
</g>
<defs>
<filter id="filter0_f_623_79" x="111.611" y="143.291" width="5.76935" height="5.94904" filterUnits="userSpaceOnUse" color-interpolation-filters="sRGB">
<feFlood flood-opacity="0" result="BackgroundImageFix"/>
<feBlend mode="normal" in="SourceGraphic" in2="BackgroundImageFix" result="shape"/>
<feGaussianBlur stdDeviation="0.791948" result="effect1_foregroundBlur_623_79"/>
</filter>
<linearGradient id="paint0_linear_623_79" x1="57" y1="252.5" x2="272" y2="265" gradientUnits="userSpaceOnUse">
<stop stop-color="#4E3D5F"/>
<stop offset="1" stop-color="#5B4A6C"/>
</linearGradient>
<linearGradient id="paint1_linear_623_79" x1="57" y1="272.5" x2="207.26" y2="278.595" gradientUnits="userSpaceOnUse">
<stop stop-color="#4E3D5F"/>
<stop offset="1" stop-color="#5B4A6C"/>
</linearGradient>
<linearGradient id="paint2_linear_623_79" x1="219" y1="272.5" x2="272.168" y2="273.262" gradientUnits="userSpaceOnUse">
<stop stop-color="#4E3D5F"/>
<stop offset="1" stop-color="#5B4A6C"/>
</linearGradient>
<linearGradient id="paint3_linear_623_79" x1="57" y1="327.5" x2="272" y2="340" gradientUnits="userSpaceOnUse">
<stop stop-color="#4E3D5F"/>
<stop offset="1" stop-color="#5B4A6C"/>
</linearGradient>
<linearGradient id="paint4_linear_623_79" x1="57" y1="347.5" x2="207.26" y2="353.595" gradientUnits="userSpaceOnUse">
<stop stop-color="#4E3D5F"/>
<stop offset="1" stop-color="#5B4A6C"/>
</linearGradient>
<linearGradient id="paint5_linear_623_79" x1="219" y1="347.5" x2="272.168" y2="348.262" gradientUnits="userSpaceOnUse">
<stop stop-color="#4E3D5F"/>
<stop offset="1" stop-color="#5B4A6C"/>
</linearGradient>
<clipPath id="clip0_623_79">
<rect width="28" height="28" fill="white" transform="translate(170 11)"/>
</clipPath>
</defs>
</svg>
