<svg width="287" height="373" viewBox="0 0 287 373" fill="none" xmlns="http://www.w3.org/2000/svg">
<rect x="1" y="126" width="285" height="40" fill="white" stroke="#8FA7FB" stroke-width="2" stroke-dasharray="12 12"/>
<path d="M120.115 152.57L124.728 140.053H126.32L130.915 152.57H129.324L128.179 149.352H122.851L121.688 152.57H120.115ZM123.298 148.136H127.732L125.515 141.948L123.298 148.136ZM132.687 152.57V139.695H134.189V152.57H132.687ZM136.651 156.504V143.701H138.01L138.153 145.167C138.439 144.738 138.845 144.35 139.369 144.005C139.906 143.659 140.585 143.486 141.408 143.486C142.29 143.486 143.059 143.689 143.715 144.094C144.37 144.499 144.877 145.054 145.235 145.757C145.604 146.461 145.789 147.259 145.789 148.153C145.789 149.048 145.604 149.846 145.235 150.55C144.877 151.241 144.364 151.789 143.697 152.195C143.041 152.588 142.272 152.785 141.39 152.785C140.663 152.785 140.013 152.636 139.441 152.338C138.88 152.04 138.451 151.623 138.153 151.086V156.504H136.651ZM141.229 151.479C141.825 151.479 142.35 151.342 142.803 151.068C143.256 150.782 143.613 150.389 143.876 149.888C144.138 149.387 144.269 148.803 144.269 148.136C144.269 147.468 144.138 146.884 143.876 146.383C143.613 145.882 143.256 145.495 142.803 145.221C142.35 144.935 141.825 144.792 141.229 144.792C140.633 144.792 140.108 144.935 139.655 145.221C139.202 145.495 138.845 145.882 138.582 146.383C138.32 146.884 138.189 147.468 138.189 148.136C138.189 148.803 138.32 149.387 138.582 149.888C138.845 150.389 139.202 150.782 139.655 151.068C140.108 151.342 140.633 151.479 141.229 151.479ZM147.88 152.57V139.695H149.382V145.221C149.68 144.672 150.103 144.249 150.652 143.951C151.2 143.641 151.796 143.486 152.44 143.486C153.465 143.486 154.288 143.808 154.908 144.452C155.528 145.084 155.838 146.061 155.838 147.384V152.57H154.353V147.545C154.353 145.698 153.608 144.774 152.118 144.774C151.343 144.774 150.693 145.054 150.169 145.614C149.644 146.162 149.382 146.949 149.382 147.975V152.57H147.88ZM161.064 152.785C160.325 152.785 159.711 152.66 159.222 152.409C158.733 152.159 158.37 151.825 158.131 151.408C157.893 150.991 157.774 150.538 157.774 150.049C157.774 149.143 158.119 148.445 158.811 147.957C159.502 147.468 160.444 147.224 161.636 147.224H164.032V147.116C164.032 146.341 163.83 145.757 163.424 145.364C163.019 144.958 162.477 144.756 161.797 144.756C161.213 144.756 160.706 144.905 160.277 145.203C159.86 145.489 159.598 145.912 159.49 146.472H157.952C158.012 145.829 158.227 145.286 158.596 144.845C158.978 144.404 159.449 144.07 160.009 143.844C160.569 143.605 161.165 143.486 161.797 143.486C163.037 143.486 163.967 143.82 164.587 144.488C165.219 145.143 165.534 146.019 165.534 147.116V152.57H164.193L164.104 150.979C163.854 151.479 163.484 151.909 162.995 152.266C162.518 152.612 161.875 152.785 161.064 152.785ZM161.296 151.515C161.869 151.515 162.357 151.366 162.763 151.068C163.18 150.77 163.496 150.383 163.71 149.906C163.925 149.429 164.032 148.928 164.032 148.404V148.386H161.761C160.879 148.386 160.253 148.541 159.884 148.851C159.526 149.149 159.347 149.524 159.347 149.977C159.347 150.442 159.514 150.818 159.848 151.104C160.194 151.378 160.676 151.515 161.296 151.515ZM171.823 152.57L176.437 140.053H178.028L182.624 152.57H181.032L179.888 149.352H174.559L173.397 152.57H171.823ZM175.006 148.136H179.441L177.223 141.948L175.006 148.136ZM184.485 152.57V140.053H185.987V152.57H184.485Z" fill="black"/>
<circle cx="108.553" cy="145.756" r="6.55285" fill="#221133"/>
<circle cx="108.554" cy="145.757" r="4.07733" fill="white"/>
<circle cx="108.55" cy="145.753" r="2.37844" fill="#221133"/>
<rect x="110.266" y="147.414" width="8.64006" height="1.68674" transform="rotate(-45 110.266 147.414)" fill="white"/>
<g filter="url(#filter0_f_575_24)">
<rect x="112.781" y="144.445" width="2.90469" height="1.39865" transform="rotate(45 112.781 144.445)" fill="#412162"/>
</g>
<rect x="111.406" y="142.844" width="8.64006" height="1.69576" transform="rotate(45 111.406 142.844)" fill="white"/>
<path d="M111.898 145.752L110.26 147.402L110.26 144.102L111.898 145.752Z" fill="#221133"/>
<path d="M146 224L153.246 211.45L138.754 211.45L146 224ZM144.745 186L144.745 212.705L147.255 212.705L147.255 186L144.745 186Z" fill="#8FA7FB"/>
<path d="M146 106L153.246 93.4501L138.754 93.4501L146 106ZM144.745 68L144.745 94.7051L147.255 94.7051L147.255 68L144.745 68Z" fill="#8FA7FB"/>
<rect width="50" height="50" rx="8" fill="#1D9BF0"/>
<path d="M38.948 17.0026C37.9214 17.4693 36.8147 17.7759 35.668 17.9226C36.8414 17.2159 37.748 16.0959 38.1747 14.7493C37.068 15.4159 35.8414 15.8826 34.548 16.1493C33.4947 15.0026 32.0147 14.3359 30.3347 14.3359C27.2014 14.3359 24.6414 16.8959 24.6414 20.0559C24.6414 20.5093 24.6947 20.9493 24.788 21.3626C20.0414 21.1226 15.8147 18.8426 13.0014 15.3893C12.508 16.2293 12.228 17.2159 12.228 18.2559C12.228 20.2426 13.228 22.0026 14.7747 23.0026C13.828 23.0026 12.948 22.7359 12.1747 22.3359V22.3759C12.1747 25.1493 14.148 27.4693 16.7614 27.9893C15.9223 28.2189 15.0415 28.2508 14.188 28.0826C14.5502 29.2192 15.2594 30.2138 16.216 30.9265C17.1727 31.6392 18.3286 32.0342 19.5214 32.0559C17.4995 33.6565 14.9933 34.5217 12.4147 34.5093C11.9614 34.5093 11.508 34.4826 11.0547 34.4293C13.588 36.0559 16.6014 37.0026 19.828 37.0026C30.3347 37.0026 36.108 28.2826 36.108 20.7226C36.108 20.4693 36.108 20.2293 36.0947 19.9759C37.2147 19.1759 38.1747 18.1626 38.948 17.0026Z" fill="black"/>
<rect x="80" width="50" height="50" rx="8" fill="#8FA7FB"/>
<path d="M110.811 27.6641C110.917 26.7841 110.997 25.9041 110.997 24.9974C110.997 24.0907 110.917 23.2107 110.811 22.3307H115.317C115.531 23.1841 115.664 24.0774 115.664 24.9974C115.664 25.9174 115.531 26.8107 115.317 27.6641M108.451 35.0774C109.251 33.5974 109.864 31.9974 110.291 30.3307H114.224C112.932 32.5551 110.883 34.2401 108.451 35.0774ZM108.117 27.6641H101.877C101.744 26.7841 101.664 25.9041 101.664 24.9974C101.664 24.0907 101.744 23.1974 101.877 22.3307H108.117C108.237 23.1974 108.331 24.0907 108.331 24.9974C108.331 25.9041 108.237 26.7841 108.117 27.6641ZM104.997 35.6107C103.891 34.0107 102.997 32.2374 102.451 30.3307H107.544C106.997 32.2374 106.104 34.0107 104.997 35.6107ZM99.6641 19.6641H95.7707C97.0492 17.4337 99.0971 15.746 101.531 14.9174C100.731 16.3974 100.131 17.9974 99.6641 19.6641ZM95.7707 30.3307H99.6641C100.131 31.9974 100.731 33.5974 101.531 35.0774C99.1022 34.2396 97.0572 32.5544 95.7707 30.3307ZM94.6774 27.6641C94.4641 26.8107 94.3307 25.9174 94.3307 24.9974C94.3307 24.0774 94.4641 23.1841 94.6774 22.3307H99.1841C99.0774 23.2107 98.9974 24.0907 98.9974 24.9974C98.9974 25.9041 99.0774 26.7841 99.1841 27.6641M104.997 14.3707C106.104 15.9707 106.997 17.7574 107.544 19.6641H102.451C102.997 17.7574 103.891 15.9707 104.997 14.3707ZM114.224 19.6641H110.291C109.873 18.0127 109.255 16.4186 108.451 14.9174C110.904 15.7574 112.944 17.4507 114.224 19.6641ZM104.997 11.6641C97.6241 11.6641 91.6641 17.6641 91.6641 24.9974C91.6641 28.5336 93.0688 31.925 95.5693 34.4255C96.8074 35.6636 98.2773 36.6457 99.8949 37.3158C101.513 37.9859 103.246 38.3307 104.997 38.3307C108.534 38.3307 111.925 36.926 114.425 34.4255C116.926 31.925 118.331 28.5336 118.331 24.9974C118.331 23.2464 117.986 21.5126 117.316 19.8949C116.646 18.2773 115.664 16.8074 114.425 15.5693C113.187 14.3312 111.718 13.3491 110.1 12.679C108.482 12.0089 106.748 11.6641 104.997 11.6641Z" fill="black"/>
<rect x="159" width="50" height="50" rx="8" fill="#DF8FFB"/>
<g clip-path="url(#clip0_575_24)">
<path d="M192.4 13.8H198V34.8C198 35.9139 197.558 36.9822 196.77 37.7698C195.982 38.5575 194.914 39 193.8 39H174.2C173.086 39 172.018 38.5575 171.23 37.7698C170.442 36.9822 170 35.9139 170 34.8V11H192.4V13.8ZM192.4 16.6V34.8C192.4 35.1713 192.547 35.5274 192.81 35.79C193.073 36.0525 193.429 36.2 193.8 36.2C194.171 36.2 194.527 36.0525 194.79 35.79C195.053 35.5274 195.2 35.1713 195.2 34.8V16.6H192.4ZM172.8 13.8V34.8C172.8 35.1713 172.947 35.5274 173.21 35.79C173.473 36.0525 173.829 36.2 174.2 36.2H189.838C189.679 35.7504 189.599 35.2768 189.6 34.8V13.8H172.8ZM175.6 25H186.8V27.8H175.6V25ZM175.6 30.6H186.8V33.4H175.6V30.6ZM175.6 16.6H186.8V22.2H175.6V16.6Z" fill="black"/>
</g>
<rect x="237" width="50" height="50" rx="8" fill="#FB8FAF"/>
<path d="M264.828 12.25V17.9167C264.828 18.2924 264.977 18.6527 265.243 18.9184C265.509 19.1841 265.869 19.3333 266.245 19.3333H271.911" stroke="black" stroke-width="2.83333" stroke-linecap="round" stroke-linejoin="round"/>
<path d="M259.161 37.75H254.911C254.16 37.75 253.439 37.4515 252.908 36.9201C252.377 36.3888 252.078 35.6681 252.078 34.9167V15.0833C252.078 14.3319 252.377 13.6112 252.908 13.0799C253.439 12.5485 254.16 12.25 254.911 12.25H264.828L271.911 19.3333V24.2917M257.745 20.75H259.161M257.745 26.4167H261.286M257.745 32.0833H259.161" stroke="black" stroke-width="2.83333" stroke-linecap="round" stroke-linejoin="round"/>
<path d="M264.828 37.75V32.0833C264.828 31.3319 265.127 30.6112 265.658 30.0799C266.189 29.5485 266.91 29.25 267.661 29.25C268.413 29.25 269.134 29.5485 269.665 30.0799C270.196 30.6112 270.495 31.3319 270.495 32.0833V37.75M264.828 34.9167H270.495M274.745 29.25V37.75" stroke="black" stroke-width="2.83333" stroke-linecap="round" stroke-linejoin="round"/>
<rect y="241" width="287" height="58" rx="8" fill="#DBD4F7"/>
<circle cx="29" cy="270" r="14" fill="#E9E3FF"/>
<rect x="57" y="256" width="215" height="9" rx="4.5" fill="url(#paint0_linear_575_24)"/>
<rect x="57" y="276" width="150" height="9" rx="4.5" fill="url(#paint1_linear_575_24)"/>
<rect x="219" y="276" width="53" height="9" rx="4.5" fill="url(#paint2_linear_575_24)"/>
<rect y="315" width="287" height="58" rx="8" fill="#DBD4F7"/>
<circle cx="29" cy="344" r="14" fill="#E9E3FF"/>
<rect x="57" y="330" width="215" height="9" rx="4.5" fill="url(#paint3_linear_575_24)"/>
<rect x="57" y="350" width="150" height="9" rx="4.5" fill="url(#paint4_linear_575_24)"/>
<rect x="219" y="350" width="53" height="9" rx="4.5" fill="url(#paint5_linear_575_24)"/>
<defs>
<filter id="filter0_f_575_24" x="110.333" y="142.989" width="5.95925" height="5.95144" filterUnits="userSpaceOnUse" color-interpolation-filters="sRGB">
<feFlood flood-opacity="0" result="BackgroundImageFix"/>
<feBlend mode="normal" in="SourceGraphic" in2="BackgroundImageFix" result="shape"/>
<feGaussianBlur stdDeviation="0.728095" result="effect1_foregroundBlur_575_24"/>
</filter>
<linearGradient id="paint0_linear_575_24" x1="57" y1="252.5" x2="272" y2="265" gradientUnits="userSpaceOnUse">
<stop stop-color="#E9E3FF"/>
<stop offset="1" stop-color="#F2EFFF"/>
</linearGradient>
<linearGradient id="paint1_linear_575_24" x1="57" y1="272.5" x2="207.26" y2="278.595" gradientUnits="userSpaceOnUse">
<stop stop-color="#E9E3FF"/>
<stop offset="1" stop-color="#F2EFFF"/>
</linearGradient>
<linearGradient id="paint2_linear_575_24" x1="219" y1="272.5" x2="272.168" y2="273.262" gradientUnits="userSpaceOnUse">
<stop stop-color="#E9E3FF"/>
<stop offset="1" stop-color="#F2EFFF"/>
</linearGradient>
<linearGradient id="paint3_linear_575_24" x1="57" y1="326.5" x2="272" y2="339" gradientUnits="userSpaceOnUse">
<stop stop-color="#E9E3FF"/>
<stop offset="1" stop-color="#F2EFFF"/>
</linearGradient>
<linearGradient id="paint4_linear_575_24" x1="57" y1="346.5" x2="207.26" y2="352.595" gradientUnits="userSpaceOnUse">
<stop stop-color="#E9E3FF"/>
<stop offset="1" stop-color="#F2EFFF"/>
</linearGradient>
<linearGradient id="paint5_linear_575_24" x1="219" y1="346.5" x2="272.168" y2="347.262" gradientUnits="userSpaceOnUse">
<stop stop-color="#E9E3FF"/>
<stop offset="1" stop-color="#F2EFFF"/>
</linearGradient>
<clipPath id="clip0_575_24">
<rect width="28" height="28" fill="white" transform="translate(170 11)"/>
</clipPath>
</defs>
</svg>
